<?xml version="1.0" standalone="no"?>
<!DOCTYPE svg PUBLIC "-//W3C//DTD SVG 20010904//EN"
 "http://www.w3.org/TR/2001/REC-SVG-20010904/DTD/svg10.dtd">
<svg version="1.0" xmlns="http://www.w3.org/2000/svg"
 width="512.000000pt" height="512.000000pt" viewBox="0 0 512.000000 512.000000"
 preserveAspectRatio="xMidYMid meet">
<metadata>
Created by potrace 1.14, written by Peter Selinger 2001-2017
</metadata>
<g transform="translate(0.000000,512.000000) scale(0.100000,-0.100000)"
fill="#000000" stroke="none">
<path d="M2455 3327 c-33 -17 -63 -36 -67 -42 -4 -5 -8 -7 -8 -2 0 4 -12 0
-26 -9 -25 -17 -25 -18 -22 -131 2 -62 1 -113 -2 -113 -3 0 -3 -172 0 -382 l5
-383 90 0 90 0 2 548 c0 301 0 547 0 547 -1 0 -29 -15 -62 -33z"/>
<path d="M2950 3272 l-85 -48 -1 -314 c0 -173 2 -322 5 -330 5 -12 25 -15 94
-16 l87 0 0 378 c0 208 -3 378 -7 378 -5 0 -46 -22 -93 -48z"/>
<path d="M2176 3051 c-39 -20 -76 -42 -84 -48 -7 -7 -17 -13 -20 -13 -4 0 -7
-126 -7 -280 l0 -280 50 -1 c63 -1 129 2 133 6 4 4 4 647 0 651 -2 1 -34 -14
-72 -35z"/>
<path d="M2735 3064 c-22 -12 -62 -34 -90 -47 l-50 -25 1 -304 c0 -167 4 -310
8 -316 4 -7 12 -10 17 -7 5 4 9 1 9 -5 0 -8 6 -7 21 1 17 9 20 8 14 -2 -6 -8
-4 -10 6 -3 8 4 37 8 64 9 l50 0 0 358 c0 197 -2 360 -5 361 -3 1 -23 -8 -45
-20z"/>
</g>
</svg>
